<?xml version="1.0" standalone="no"?>
<!DOCTYPE svg PUBLIC "-//W3C//DTD SVG 20010904//EN"
 "http://www.w3.org/TR/2001/REC-SVG-20010904/DTD/svg10.dtd">
<svg version="1.0" xmlns="http://www.w3.org/2000/svg"
 width="1024.000000pt" height="1024.000000pt" viewBox="0 0 1024.000000 1024.000000"
 preserveAspectRatio="xMidYMid meet">
<metadata>
Created by potrace 1.11, written by Peter Selinger 2001-2013
</metadata>
<g transform="translate(0.000000,1024.000000) scale(0.100000,-0.100000)"
fill="#000000" stroke="none">
<path d="M4097 9314 c-1 -1 -18 -4 -37 -7 -20 -2 -49 -11 -66 -20 -30 -16 -61
-45 -53 -51 2 -1 47 -31 99 -66 95 -63 209 -147 265 -195 17 -14 50 -42 75
-63 50 -42 249 -240 295 -293 209 -242 356 -463 490 -734 102 -209 122 -255
179 -425 73 -219 124 -433 150 -637 14 -103 16 -122 23 -198 9 -102 9 -478 0
-570 -14 -139 -18 -170 -23 -187 -3 -10 -3 -18 0 -18 31 0 894 580 1081 727
17 13 35 27 40 31 6 4 26 19 45 32 19 14 39 30 46 35 6 6 26 21 44 35 34 25
103 80 130 103 8 6 37 30 65 51 27 22 52 42 55 45 3 3 39 35 80 71 245 210
336 342 306 439 -11 37 -88 121 -166 181 -90 70 -291 217 -370 270 -44 30 -86
60 -93 65 -7 6 -43 30 -82 55 -38 25 -74 48 -80 52 -39 30 -286 185 -495 311
-162 98 -193 116 -278 164 -23 13 -93 53 -154 89 -61 35 -112 64 -114 64 -2 0
-25 13 -51 28 -88 52 -588 315 -603 317 -3 0 -57 26 -120 56 -269 131 -484
218 -580 235 -35 6 -100 11 -103 8z"/>
<path d="M6300 5675 c-89 -24 -216 -91 -390 -205 -47 -30 -89 -57 -95 -60 -5
-3 -37 -23 -69 -45 -32 -22 -69 -47 -82 -55 -69 -45 -139 -96 -142 -102 -2 -5
-8 -8 -13 -8 -5 0 -17 -7 -26 -16 -10 -9 -73 -55 -140 -103 -99 -70 -352 -259
-413 -308 -8 -7 -107 -85 -220 -175 -113 -89 -207 -165 -210 -168 -3 -3 -27
-23 -55 -45 -27 -21 -61 -49 -75 -62 -14 -12 -74 -63 -135 -114 -146 -121
-260 -220 -475 -412 -251 -223 -747 -714 -821 -812 -61 -81 -84 -137 -84 -205
0 -109 64 -195 319 -425 49 -44 101 -91 116 -105 16 -14 47 -41 70 -59 23 -19
48 -40 54 -46 6 -5 36 -30 66 -55 30 -25 57 -47 60 -50 3 -3 25 -21 50 -40 58
-44 64 -49 132 -104 32 -25 62 -46 68 -46 5 0 10 -3 10 -7 0 -5 16 -19 35 -32
19 -13 44 -32 56 -42 12 -11 25 -19 29 -19 3 0 15 -8 26 -17 10 -10 55 -43 99
-73 44 -29 100 -68 125 -85 272 -190 781 -480 1055 -602 125 -56 262 -90 281
-70 4 3 -8 29 -25 57 -102 165 -252 499 -295 655 -1 6 -10 37 -19 70 -16 57
-21 76 -46 170 -5 22 -13 56 -16 75 -3 19 -8 46 -10 60 -11 53 -13 69 -20 120
-4 29 -8 62 -10 72 -25 126 -25 603 0 760 2 12 6 45 10 71 4 27 8 59 11 70 2
12 7 38 10 57 3 19 10 55 16 80 5 25 12 56 14 70 3 14 7 33 10 42 3 9 6 25 8
35 17 89 98 338 157 488 7 17 14 39 16 49 2 11 7 24 12 30 5 6 24 47 42 90 48
116 163 341 231 451 10 17 21 37 25 45 6 12 156 237 223 335 16 23 121 157
130 165 3 3 28 32 55 65 28 33 59 70 70 81 138 149 290 293 405 384 36 29 65
59 65 68 0 9 -22 26 -50 41 -58 29 -153 36 -225 16z"/>
</g>
</svg>
