<svg xmlns="http://www.w3.org/2000/svg" viewBox="0 0 284.19 55.83"><defs><style>.a{fill:#fff;}</style></defs><title>IC-flexipass_RGB</title><path class="a" d="M302.25,160.74a10.68,10.68,0,0,1-2.56.31,7.41,7.41,0,0,1-4.17-1.16A4.66,4.66,0,0,1,293.6,156a19.86,19.86,0,0,1-5.49,3.85,17.16,17.16,0,0,1-7.5,1.52,18.77,18.77,0,0,1-3.85-.44,10.67,10.67,0,0,1-3.85-1.64A9.36,9.36,0,0,1,270,156a11.38,11.38,0,0,1-1.16-5.49,10.13,10.13,0,0,1,2.16-6.69,14.74,14.74,0,0,1,5.37-4,25.39,25.39,0,0,1,6.89-2,48.1,48.1,0,0,1,6.65-.52q1,0,1.84,0t1.76.12v-1.94a15.33,15.33,0,0,0-.4-3.59,7,7,0,0,0-1.4-2.87,6.57,6.57,0,0,0-2.79-1.9,13.29,13.29,0,0,0-4.67-.69,19,19,0,0,0-6.63,1,17.74,17.74,0,0,0-4.87,2.67,7.74,7.74,0,0,1-1.36-3A1.48,1.48,0,0,1,272,126a8.39,8.39,0,0,1,1.48-1,20.25,20.25,0,0,1,5.19-1.77,28.6,28.6,0,0,1,6-.67,20.55,20.55,0,0,1,6.51.88,9.67,9.67,0,0,1,4.15,2.61,9.8,9.8,0,0,1,2.2,4.25,24.19,24.19,0,0,1,.64,5.89v16a15.15,15.15,0,0,0,.32,3.53,5,5,0,0,0,.88,2,2.52,2.52,0,0,0,1.36.88,10.35,10.35,0,0,0,1.46.25c.13,0,.39.08.39.3v1.14C302.58,160.58,302.47,160.68,302.25,160.74Zm-8.65-20a6.23,6.23,0,0,0-1-.08h-1.08a55.38,55.38,0,0,0-6.27.36,21.19,21.19,0,0,0-5.75,1.44,10.88,10.88,0,0,0-4.19,3,7.31,7.31,0,0,0-1.6,4.91,10,10,0,0,0,.36,2.67,5.71,5.71,0,0,0,1.24,2.31,6.53,6.53,0,0,0,2.36,1.64,9.62,9.62,0,0,0,3.79.64,15,15,0,0,0,4.67-.72,17.92,17.92,0,0,0,3.87-1.76,11.86,11.86,0,0,0,2.64-2.11,3,3,0,0,0,1-1.79Z" transform="translate(-83.58 -106.38)"/><path class="a" d="M318.09,126.42a12.41,12.41,0,0,0-2.77.32,8.87,8.87,0,0,0-2.61,1,6,6,0,0,0-2,1.88,5.24,5.24,0,0,0-.76,2.93,4.71,4.71,0,0,0,.76,2.77,6.5,6.5,0,0,0,2,1.84,15.3,15.3,0,0,0,2.92,1.32q1.63.56,3.39,1,2.07.64,4.11,1.36a13.48,13.48,0,0,1,3.67,2,9.21,9.21,0,0,1,3.71,7.9,10.45,10.45,0,0,1-1,4.73,10.24,10.24,0,0,1-2.81,3.49,12.35,12.35,0,0,1-4.13,2.13,17.38,17.38,0,0,1-5.09.72,24.29,24.29,0,0,1-7.34-1,16.36,16.36,0,0,1-4.13-1.76,2.4,2.4,0,0,1-1.2-1.84,2.47,2.47,0,0,1,.36-1.2,20.37,20.37,0,0,1,1.24-1.84,15.15,15.15,0,0,0,1.48,1,19.28,19.28,0,0,0,2.39,1.28,20.41,20.41,0,0,0,3.16,1.12,14.44,14.44,0,0,0,3.83.48,13.4,13.4,0,0,0,3.28-.4,8.35,8.35,0,0,0,2.79-1.24,6.16,6.16,0,0,0,1.92-2.2A7,7,0,0,0,326,151a6.34,6.34,0,0,0-.8-3.33,6.43,6.43,0,0,0-2.15-2.17,14,14,0,0,0-3.12-1.4q-1.76-.56-3.59-1-2-.56-4-1.24A12.91,12.91,0,0,1,308.9,140a8.88,8.88,0,0,1-2.52-2.93,9.34,9.34,0,0,1-1-4.49,8.28,8.28,0,0,1,1.1-4.33,10.59,10.59,0,0,1,2.85-3.13,12.49,12.49,0,0,1,4-1.92,16.84,16.84,0,0,1,4.65-.64,17.74,17.74,0,0,1,6.53,1,12.52,12.52,0,0,1,5.17,3.45c1,1.25.27,3.93-1.17,4.7a12.51,12.51,0,0,0-4.44-4A12.36,12.36,0,0,0,318.09,126.42Z" transform="translate(-83.58 -106.38)"/><path class="a" d="M347.66,126.42a12.44,12.44,0,0,0-2.77.32,8.9,8.9,0,0,0-2.61,1,6,6,0,0,0-2,1.88,5.22,5.22,0,0,0-.76,2.93,4.71,4.71,0,0,0,.76,2.77,6.48,6.48,0,0,0,2,1.84,15.33,15.33,0,0,0,2.91,1.32q1.64.56,3.39,1,2.07.64,4.11,1.36a13.44,13.44,0,0,1,3.67,2,9.21,9.21,0,0,1,3.71,7.9,10.43,10.43,0,0,1-1,4.73,10.26,10.26,0,0,1-2.8,3.49,12.38,12.38,0,0,1-4.13,2.13,17.4,17.4,0,0,1-5.09.72,24.29,24.29,0,0,1-7.34-1,16.36,16.36,0,0,1-4.13-1.76,2.4,2.4,0,0,1-1.2-1.84,2.47,2.47,0,0,1,.36-1.2,19.83,19.83,0,0,1,1.24-1.84,15.39,15.39,0,0,0,1.48,1,19.32,19.32,0,0,0,2.4,1.28,20.46,20.46,0,0,0,3.15,1.12,14.46,14.46,0,0,0,3.83.48,13.38,13.38,0,0,0,3.27-.4,8.36,8.36,0,0,0,2.8-1.24,6.17,6.17,0,0,0,1.92-2.2,7,7,0,0,0,.72-3.29,6.34,6.34,0,0,0-.8-3.33,6.46,6.46,0,0,0-2.16-2.17,14,14,0,0,0-3.12-1.4q-1.76-.56-3.59-1-2-.56-4-1.24a12.88,12.88,0,0,1-3.51-1.84,8.88,8.88,0,0,1-2.52-2.93,9.34,9.34,0,0,1-1-4.49,8.28,8.28,0,0,1,1.1-4.33,10.59,10.59,0,0,1,2.85-3.13,12.45,12.45,0,0,1,4-1.92,16.81,16.81,0,0,1,4.65-.64,17.75,17.75,0,0,1,6.54,1,12.5,12.5,0,0,1,5.17,3.45c1,1.25.27,3.93-1.17,4.7a11.83,11.83,0,0,0-10.46-5.34Z" transform="translate(-83.58 -106.38)"/><path class="a" d="M133,161.13a6,6,0,0,1-1.52.24q-1.12.08-2.49.08a11.83,11.83,0,0,1-2.61-.28,5.43,5.43,0,0,1-2.2-1,5.2,5.2,0,0,1-1.52-2,8.25,8.25,0,0,1-.56-3.29V106.91a3.63,3.63,0,0,1,1.2-.2q1.2-.12,2.49-.12a13.92,13.92,0,0,1,2.57.24,6.36,6.36,0,0,1,2.32.92,5,5,0,0,1,1.68,1.92,7.09,7.09,0,0,1,.64,3.25Z" transform="translate(-83.58 -106.38)"/><path class="a" d="M159.32,153.84a12.78,12.78,0,0,0,3.54-.44,14.07,14.07,0,0,0,2.73-1.08,12.31,12.31,0,0,0,3.56-2.88c1.19.44,4,2.72,3.83,5.84-.06,1.73-2.65,4.32-7.41,6-2.75,1-13.67,2.7-21.16-3.55a17.11,17.11,0,0,1-4.61-6.45A25.7,25.7,0,0,1,138,141a22,22,0,0,1,1.56-8.7,17.46,17.46,0,0,1,4.17-6.05,16.45,16.45,0,0,1,5.89-3.53,20.71,20.71,0,0,1,6.73-1.12A18.56,18.56,0,0,1,164,123a13.88,13.88,0,0,1,5.09,3.77,14.84,14.84,0,0,1,2.85,5.41,23,23,0,0,1,.88,6.41v1.12c0,.43,0,.88,0,1.36l-.08,1.4a8.47,8.47,0,0,1-.12,1.08H148.94a12.66,12.66,0,0,0,2.73,7.34Q154.09,153.84,159.32,153.84ZM163,137.56a11.72,11.72,0,0,0-1.49-6.25q-1.49-2.41-5.36-2.4a6.63,6.63,0,0,0-5.28,2.28,9.43,9.43,0,0,0-2,6.37Z" transform="translate(-83.58 -106.38)"/><path class="a" d="M94.49,115.52h16.43q3.69,0,5.09-1.6a5.87,5.87,0,0,0,1.4-4q0-.88,0-1.48a14.08,14.08,0,0,0-.2-1.48H85.68c-1.7,0-2.09.62-2.09,2v50.46a1.29,1.29,0,0,0,1.28,1.27h8.36a1.29,1.29,0,0,0,1.28-1.27V136.59h16a1.29,1.29,0,0,0,1.27-1.28v-6a1.29,1.29,0,0,0-1.27-1.28h-16V115.52Z" transform="translate(-83.58 -106.38)"/><path class="a" d="M226.37,112.44a5.43,5.43,0,0,1-1.72,4.17,6.17,6.17,0,0,1-8.3,0,5.5,5.5,0,0,1-1.68-4.17,5.63,5.63,0,0,1,1.68-4.21,6.06,6.06,0,0,1,8.3,0A5.56,5.56,0,0,1,226.37,112.44Z" transform="translate(-83.58 -106.38)"/><path class="a" d="M226.29,161.13a4.77,4.77,0,0,1-1.44.24q-1.12.08-2.4.08a13.58,13.58,0,0,1-2.89-.28,5.12,5.12,0,0,1-2.2-1,5,5,0,0,1-1.44-2,8.79,8.79,0,0,1-.52-3.29V122.73a3.64,3.64,0,0,1,1.2-.2q1.2-.12,2.49-.12a13.93,13.93,0,0,1,2.57.24,6.36,6.36,0,0,1,2.33.92,5,5,0,0,1,1.68,1.92,7.09,7.09,0,0,1,.64,3.25Z" transform="translate(-83.58 -106.38)"/><path class="a" d="M199.1,142.05,211.15,124a11.35,11.35,0,0,0-2.55-1.15,11,11,0,0,0-3-.4,7.84,7.84,0,0,0-4.73,1.24,13,13,0,0,0-3.21,3.73l-4.33,7.05-4.17-7.62a10.12,10.12,0,0,0-2.69-3.29,6.87,6.87,0,0,0-4.29-1.2,16.1,16.1,0,0,0-3.49.4,8.06,8.06,0,0,0-2.79,1.2l10.93,17.72S176,158.51,175.59,159.18s-.27,1.47.56,1.47h9.18a1.5,1.5,0,0,0,1.27-.81c.39-.58,6.08-10.17,6.08-10.17v0l4.81,7.56a8.32,8.32,0,0,0,3.53,3.41,11.77,11.77,0,0,0,4.73.84,13.49,13.49,0,0,0,5.05-1L199.1,142.05Z" transform="translate(-83.58 -106.38)"/><path class="a" d="M361.73,122.38h-1.17v-.11s0-.06,0-.11a.42.42,0,0,1,.11-.28.47.47,0,0,1,.37-.13h2.64a1.79,1.79,0,0,1,0,.24.44.44,0,0,1,0,.14.32.32,0,0,1-.08.12.46.46,0,0,1-.15.09.59.59,0,0,1-.22,0h-.71v3.13h-.78Z" transform="translate(-83.58 -106.38)"/><path class="a" d="M364.49,121.73a.42.42,0,0,1,.29.09.63.63,0,0,1,.16.23l.85,2,.86-2a.55.55,0,0,1,.2-.26.46.46,0,0,1,.27-.08h.23l.16,0,.27,3.73H367l-.18-2.49-.76,1.71h-.65l-.74-1.63-.16,2.42h-.74l.28-3.73.16,0Z" transform="translate(-83.58 -106.38)"/><path class="a" d="M263.36,110.19q-5-3.81-15.76-3.81-3.06,0-6.11.2t-5.79.44v53.05a.59.59,0,0,0,.58.58h3.49a.6.6,0,0,0,.6-.58V138.78h6.69a41.76,41.76,0,0,0,8.06-.76,18.58,18.58,0,0,0,6.81-2.73,13.92,13.92,0,0,0,4.68-5.33,18.5,18.5,0,0,0,1.73-8.5Q268.34,114,263.36,110.19Zm-4,21.71q-4.09,3-11.46,3h-7.61V110.56q1.62-.16,3.28-.24t4.25-.08a34.08,34.08,0,0,1,6.11.52,13.9,13.9,0,0,1,5,1.86,9.47,9.47,0,0,1,3.32,3.59,12,12,0,0,1,1.21,5.73Q263.44,128.88,259.35,131.9Z" transform="translate(-83.58 -106.38)"/></svg>