<?xml version="1.0" encoding="utf-8"?>
<!-- Generator: Adobe Illustrator 19.2.1, SVG Export Plug-In . SVG Version: 6.00 Build 0)  -->
<svg version="1.1" id="Layer_1" xmlns="http://www.w3.org/2000/svg" xmlns:xlink="http://www.w3.org/1999/xlink" x="0px" y="0px"
	 viewBox="0 0 1200 325" style="enable-background:new 0 0 1200 325;" xml:space="preserve">
<style type="text/css">
	.st0{fill:#47C132;}
</style>
<g>
	<path class="st0" d="M553.7,264.3c-19.6,0-36-6.1-47.5-17.5c-11.3-11-17.6-27.5-17.6-46.3c0-17.2,6.1-32.4,17.5-44.2
		c10.7-11,25.9-16.8,44-16.8c20.3,0,36.3,7.3,46.4,21c7.6,10.4,11.3,26.4,11,47.6c0,3.2-2.3,5.5-5.5,5.5h-74
		c1.3,5.3,3.4,9.3,6.7,12.6c4.8,5,12.6,7.9,21.4,7.9c9.7,0,18.2-2.4,27.4-7.7c3.6-2,6.8-1.2,8.2,1.7l8.9,16.5
		c1.1,2.6,0.2,5.5-2.3,7.3C588,259.4,570,264.3,553.7,264.3z M527.7,188.1h43.8c-0.5-4.9-2.1-8.9-5.1-12.5c-3.7-3.9-9.6-6.2-16-6.2
		c-7.2,0-13.6,2.3-17.1,6.3C530.6,178.9,528.6,183.1,527.7,188.1z"/>
	<path class="st0" d="M893.7,158.1c0-6,1.8-10.2,5.3-12.7c3.5-2.5,8.2-3.7,14-3.7c4.1,0,7.9,0.5,11.3,1.5c3.4,1,5.5,1.7,6.5,2l0,111
		c0,3-2.5,5.5-5.5,5.5h-26c-3.1,0-5.6-2.4-5.6-5.5V158.1z"/>
	<path class="st0" d="M912.3,126.3c-11.8,0-21.1-9.2-21.1-21c0-11.8,9.2-21,21.1-21c11.5,0,20.8,9.4,20.8,21
		C933.1,116.9,923.8,126.3,912.3,126.3z"/>
	<path class="st0" d="M404,123.6c0-6,1.8-10.2,5.3-12.7c3.5-2.5,8.2-3.7,14.1-3.7c4.1,0,7.9,0.5,11.3,1.5c3.4,1,5.5,1.7,6.4,2l0,31
		H464c6,0,10.2,1.2,12.7,3.6c2.5,2.4,3.8,6,3.8,10.8c0,3.5-0.5,6.7-1.6,9.7c-1.1,3-1.9,4.9-2.4,5.9l-35.4,0v42.6
		c0,5.5,0.7,9.5,2.3,12.4c1.8,3.6,5,5.2,10.2,5.2c5.3,0,10.4-2,15.5-6c3.2-2.5,6.9-1.8,8,1.3l8.8,18.7c1.3,2.3,0.5,5.4-2.1,7.2
		c-10.2,7.2-24.5,11.3-39.2,11.3c-13.9,0-24.4-4-31.1-11.8c-6.4-8-9.6-19.3-9.6-33.7V123.6z"/>
	<path class="st0" d="M1148.8,143.7c-0.6-0.9-1.9-1.9-4.3-1.9h-28.8c-4.4,0-6.8,1.6-8,5.3l-23.5,74l-28-74c-1.6-4.7-5.3-5.2-8-5.2
		h-61.5v-31c-0.9-0.3-3-1-6.4-2c-3.4-1-7.1-1.5-11.3-1.5c-5.8,0-10.5,1.2-14,3.7c-3.5,2.5-5.3,6.7-5.3,12.7v95.2
		c0,14.4,3.2,25.7,9.6,33.7c6.7,7.8,17.1,11.8,31.1,11.8c14.7,0,29-4.1,39.2-11.3c2.6-1.8,3.4-4.9,2.1-7.2l-8.9-18.7
		c-1.1-3-4.8-3.7-8-1.3c-5.1,4-10.2,6-15.5,6c-5.2,0-8.4-1.6-10.2-5.2c-1.6-3-2.3-6.9-2.3-12.4v-42.6l35.4,0l43,96.4
		c-3.2,5.6-6.7,9.8-10.8,13.2c-5,3.9-10.9,5.8-18,5.8c-2.1,0-3.6-0.2-5-0.3c-1-0.1-1.9-0.2-2.9-0.2c-2.8,0-4.8,1.9-4.8,4.8v25.7
		c0,2.7,2,4.7,4.7,4.7c0,0,0,0,0,0c2,0.1,4,0.2,6,0.2c18.7,0,34.4-5.6,46.7-16.7c10.2-9.2,17.5-21,23.9-38.3l44.3-117.6
		C1150,147.1,1149.9,145.1,1148.8,143.7z"/>
	<path class="st0" d="M208.6,100.5c0-6.5,1.9-11.1,5.8-13.8c3.8-2.6,8.9-4,15.1-4c4.6,0,8.7,0.6,12.3,1.7c3.6,1.1,5.9,1.8,6.9,2.2
		v169.7c0,3.1-2.4,5.5-5.5,5.5h-28.8c-3.2,0-5.8-2.5-5.8-5.5L208.6,100.5z"/>
	<path class="st0" d="M380.2,261.8h-26c-3,0-5.5-2.5-5.5-5.5v-60.1c0-6.1-1-10.7-3.1-15c-3.3-6.1-10.2-9.5-19.3-9.5
		c-9.2,0-16,3.4-19.4,9.5c-2.1,4.3-3.1,8.9-3.1,15v60.1c0,3-2.5,5.5-5.5,5.5h-26c-3,0-5.5-2.5-5.5-5.5v-62.3
		c0-14.8,3.4-26.4,10.5-35.4c9.9-12.4,26.8-19,48.9-19c22.4,0,39.3,6.6,48.9,19c7.3,9.2,10.8,20.8,10.8,35.4v62.3
		C386,259.3,383.4,261.8,380.2,261.8z"/>
	<path class="st0" d="M712.4,158.9c0.5,11.6-9.4,20.7-9.4,20.7c-4.8-3.7-11.5-7.7-22.8-7.7c-8.5,0-15,3.1-18.1,9.3
		c-3.4,6.8-3.1,15-3.1,15v60.1c0,3-2.5,5.5-5.5,5.5h-26c-3,0-5.5-2.5-5.5-5.5v-62.6c0-14.9,3.3-26,10.5-35.2
		c9.9-12.8,25.5-19,47.7-19C695.3,139.5,711.9,146.7,712.4,158.9z"/>
	<path class="st0" d="M858.7,89.4c10.1,4.7,16.1,12.3,13.2,23.8c-2.7,10.7-9.5,17.7-10.5,18.6c-1.9-1.3-16.8-12.6-40.5-12.6
		c-29.2,0-52,23.7-52,54c0,31.5,22,54.3,52.2,54.3c13.6,0,25.9-3.2,38.6-10c1.4-0.6,2.3-0.9,3.1-0.9c1.7,0,3,1,3.8,2.9l11.7,24.9
		c1.4,3.2,0.5,5.7-2.6,7.1c-17.1,8.7-34,12.6-54.9,12.6c-57,0-93.8-35.7-93.8-91c0-50.8,41.5-90.5,94.6-90.5
		C833.1,82.8,848.5,84.6,858.7,89.4z"/>
	<path class="st0" d="M174.6,70c-26.5-21.8-85-55.2-112.1-65.3c-7.8-2.9-13-1.8-14.9,1.1c36,21.9,60.3,62.8,60.3,109.7
		c0,6.4-0.5,12.6-1.3,18.7c41.1-25.5,63.5-45.1,68.2-50.7C179.1,78.4,180.4,74.8,174.6,70z"/>
	<path class="st0" d="M89.5,254.7c1.4-41.5,25.7-86.8,58.6-111.7c-4-3.8-9.9-3.7-16.5,0c-30.6,16.9-93.2,67.6-120.9,98.4
		c-6,6.7-5.5,12.1,0.3,17.9c5.2,5.2,36.4,35.8,82.3,58.2c5.1,2.5,12.3,5.2,13.8,3.9C95.3,302.3,88.7,279.3,89.5,254.7z"/>
	<g>
		<path class="st0" d="M1173.2,141.8c0.2,0,0.4,0.2,0.4,0.4v2.4c0,0.2-0.2,0.4-0.4,0.4h-5v13.3c0,0.2-0.2,0.4-0.4,0.4h-2.8
			c-0.2,0-0.4-0.2-0.4-0.4V145h-5c-0.2,0-0.4-0.2-0.4-0.4v-2.4c0-0.2,0.2-0.4,0.4-0.4H1173.2z"/>
		<path class="st0" d="M1192.9,158.2c0,0.2-0.2,0.4-0.4,0.4h-2.7c-0.2,0-0.4-0.2-0.4-0.4V148l-3.6,6.2c-0.1,0.3-0.3,0.4-0.6,0.4h-2
			c-0.3,0-0.5-0.1-0.6-0.4l-3.7-6.2v10.2c0,0.2-0.2,0.4-0.4,0.4h-2.7c-0.2,0-0.4-0.2-0.4-0.4v-16c0-0.2,0.2-0.4,0.4-0.4h2.8
			c0.3,0,0.5,0,0.7,0.4l4.8,8.3l4.8-8.3c0.2-0.4,0.4-0.4,0.7-0.4h2.8c0.2,0,0.4,0.2,0.4,0.4V158.2z"/>
	</g>
</g>
</svg>
