<?xml version="1.0" encoding="utf-8"?>
<!-- Generator: Adobe Illustrator 19.2.1, SVG Export Plug-In . SVG Version: 6.00 Build 0)  -->
<svg version="1.1" id="logo" xmlns="http://www.w3.org/2000/svg" xmlns:xlink="http://www.w3.org/1999/xlink" x="0px" y="0px"
	 viewBox="0 0 198.4 198.4" style="enable-background:new 0 0 198.4 198.4;" xml:space="preserve">
<style type="text/css">
	.st0{fill:#47C132;}
</style>
<g>
	<g>
		<path class="st0" d="M141.7,52C127,40,94.6,21.5,79.6,15.9c-4.3-1.6-7.2-1-8.2,0.6c20,12.1,33.4,34.8,33.4,60.8
			c0,3.5-0.3,7-0.7,10.4c22.7-14.1,35.1-24.9,37.8-28C144.2,56.6,144.9,54.6,141.7,52z"/>
		<path class="st0" d="M94.5,154.2c0.8-23,14.2-48,32.4-61.8c-2.2-2.1-5.5-2-9.1,0c-16.9,9.3-51.6,37.4-66.9,54.4
			c-3.3,3.7-3.1,6.7,0.2,9.9c2.9,2.8,20.1,19.8,45.6,32.2c2.8,1.4,6.8,2.9,7.6,2.2C97.7,180.6,94.1,167.8,94.5,154.2z"/>
	</g>
</g>
</svg>
