<svg xmlns="http://www.w3.org/2000/svg" viewBox="0 0 153 204" width="30"><defs><style>.cls-1{fill:#00c211;}.cls-2{fill:#fff;}</style></defs><title>Asset 3</title><g id="Layer_2" data-name="Layer 2"><g id="Layer_1-2" data-name="Layer 1"><path class="cls-1" d="M76.5,0C34.25,0,0,32,0,71.4,0,125,76.5,204,76.5,204S153,125,153,71.4C153,32,118.75,0,76.5,0Z"/><circle class="cls-2" cx="76.5" cy="73.31" r="57.38"/><path class="cls-1" d="M100,76.5V47.81H51.7V76.5Zm-14-31.87V38.25H63.75v6.38ZM94,92.33a6,6,0,1,0-6-6A6,6,0,0,0,94,92.33Zm-36.25,0a6,6,0,1,0-6-6A6,6,0,0,0,57.74,92.33ZM43.58,88.18V48c0-14.16,14.53-16,32.28-16s32.28,1.89,32.28,16V88.18A12.42,12.42,0,0,1,104,97.24v7.17a3.87,3.87,0,0,1-4,4h-4a4,4,0,0,1-4.15-4v-4.15H59.82v4.15a4,4,0,0,1-4.15,4h-4a3.87,3.87,0,0,1-4-4V97.24a12.43,12.43,0,0,1-4.15-9.06Z"/><rect class="cls-1" x="35.06" y="51" width="6.37" height="19.13" rx="1" ry="1"/><rect class="cls-1" x="110.56" y="51" width="6.38" height="19.13" rx="1" ry="1"/></g></g></svg>