<svg xmlns="http://www.w3.org/2000/svg" viewBox="0 0 330.65 55.86"><defs><style>.a{fill:#fff;}</style></defs><title>IC-travelpass_RGB</title><path class="a" d="M265.34,161.13a6,6,0,0,1-1.52.24q-1.12.08-2.49.08a11.83,11.83,0,0,1-2.61-.28,5.43,5.43,0,0,1-2.2-1,5.18,5.18,0,0,1-1.52-2,8.24,8.24,0,0,1-.56-3.29V106.91a3.65,3.65,0,0,1,1.2-.2q1.2-.12,2.49-.12a13.92,13.92,0,0,1,2.56.24,6.34,6.34,0,0,1,2.32.92,5,5,0,0,1,1.68,1.92,7.08,7.08,0,0,1,.64,3.25Z" transform="translate(-76.31 -106.35)"/><path class="a" d="M235.18,153.84a12.77,12.77,0,0,0,3.54-.44,14,14,0,0,0,2.73-1.08,12.31,12.31,0,0,0,3.56-2.88c1.19.44,4,2.72,3.83,5.84-.06,1.73-2.65,4.32-7.41,6-2.75,1-13.67,2.7-21.17-3.55a17.13,17.13,0,0,1-4.61-6.45A25.7,25.7,0,0,1,213.9,141a22,22,0,0,1,1.56-8.7,17.46,17.46,0,0,1,4.17-6.05,16.46,16.46,0,0,1,5.89-3.53,20.72,20.72,0,0,1,6.74-1.12,18.57,18.57,0,0,1,7.62,1.4,13.88,13.88,0,0,1,5.09,3.77,14.84,14.84,0,0,1,2.85,5.41,23,23,0,0,1,.88,6.41v1.12c0,.43,0,.88,0,1.36s-.05.95-.08,1.4a8.5,8.5,0,0,1-.12,1.08H224.8a12.64,12.64,0,0,0,2.73,7.34Q229.95,153.84,235.18,153.84Zm3.65-16.27a11.73,11.73,0,0,0-1.49-6.25q-1.49-2.41-5.36-2.4a6.63,6.63,0,0,0-5.28,2.28,9.43,9.43,0,0,0-2,6.37Z" transform="translate(-76.31 -106.35)"/><path class="a" d="M174.78,151.34q0,6.33,1.84,9.22a15.82,15.82,0,0,1-2.69.8,13.72,13.72,0,0,1-2.61.24,7.17,7.17,0,0,1-4.37-1.12,5,5,0,0,1-1.88-3.21,14.45,14.45,0,0,1-4.65,3.13,17.35,17.35,0,0,1-7.06,1.28,16.2,16.2,0,0,1-4.33-.6,11.33,11.33,0,0,1-3.93-2,10.14,10.14,0,0,1-2.89-3.64,12.46,12.46,0,0,1-1.12-5.55,10.58,10.58,0,0,1,2-6.63,14,14,0,0,1,4.93-4,22.32,22.32,0,0,1,6.41-2,61,61,0,0,1,6.33-.72c.64-.05,1.27-.08,1.88-.08h1.72V135q0-3.08-1.64-4.38t-5.33-1.3a15.8,15.8,0,0,0-6.13,1.12A50.23,50.23,0,0,0,146,133a11.76,11.76,0,0,1-1.8-3,7.23,7.23,0,0,1-.68-2.45,2.9,2.9,0,0,1,1.24-2.16,12.21,12.21,0,0,1,3.41-1.88,27.69,27.69,0,0,1,5-1.36,32.43,32.43,0,0,1,5.93-.52,26.37,26.37,0,0,1,7.34.88,11.47,11.47,0,0,1,4.89,2.73,10.36,10.36,0,0,1,2.69,4.61,23.31,23.31,0,0,1,.8,6.45ZM164.52,142H163.4a8,8,0,0,0-1.12.08q-2,.16-4,.48a11.4,11.4,0,0,0-3.49,1.12,7.32,7.32,0,0,0-2.49,2.08,5.34,5.34,0,0,0-1,3.29,5.81,5.81,0,0,0,1.28,3.81q1.28,1.56,4.33,1.56a10.14,10.14,0,0,0,2.89-.4,9.85,9.85,0,0,0,2.4-1,6.19,6.19,0,0,0,1.64-1.4,2.34,2.34,0,0,0,.6-1.4Z" transform="translate(-76.31 -106.35)"/><path class="a" d="M201.42,159.6a2,2,0,0,1-2.17,1.43H191a2,2,0,0,1-2.17-1.43c-.23-.68-12.76-36.16-12.76-36.16a16,16,0,0,1,5.77-1A7.73,7.73,0,0,1,185,123a6,6,0,0,1,2.08,1.52,7.56,7.56,0,0,1,1.36,2.37q.52,1.4,1,3.09l5.77,20.68,6.09-20.92a28.59,28.59,0,0,1,1-3,8.85,8.85,0,0,1,1.36-2.33,5,5,0,0,1,2-1.44,11,11,0,0,1,5.89-.16c1,.21,2.4.72,2.4.72Z" transform="translate(-76.31 -106.35)"/><path class="a" d="M120.8,106.92H83.12q-3.69,0-5.25,1.8a5.92,5.92,0,0,0-1.56,4q0,.88,0,1.52a15.83,15.83,0,0,0,.2,1.6v.08H93.3v43.46a1.31,1.31,0,0,0,1.3,1.29h8.48a1.31,1.31,0,0,0,1.29-1.29V115.9h10.09a8.62,8.62,0,0,0,3.09-.48,6.15,6.15,0,0,0,2-1.24,4.15,4.15,0,0,0,1.12-1.76,6.69,6.69,0,0,0,.32-2A24.29,24.29,0,0,0,120.8,106.92Z" transform="translate(-76.31 -106.35)"/><path class="a" d="M139.89,123.54a3.9,3.9,0,0,0-1.48-1.19,7.1,7.1,0,0,0-2-.6,14.16,14.16,0,0,0-2-.16,9.27,9.27,0,0,0-3,.48,12.56,12.56,0,0,0-2.57,1.19,9.1,9.1,0,0,0-2,1.59,13.8,13.8,0,0,0-1.28,1.59,4.45,4.45,0,0,0-2.37-3.06,9.43,9.43,0,0,0-4.45-1q-.88,0-1.52,0t-1.12.12l-1,.16v36.66a1.29,1.29,0,0,0,1.28,1.27h8.36a1.29,1.29,0,0,0,1.28-1.27v-23.5a4.41,4.41,0,0,1,1.68-3.46,6.17,6.17,0,0,1,4.17-1.45,7.89,7.89,0,0,1,3.21.6,11.86,11.86,0,0,1,2.73,1.72,32.88,32.88,0,0,0,1.76-3.87,11.3,11.3,0,0,0,.88-4A3,3,0,0,0,139.89,123.54Z" transform="translate(-76.31 -106.35)"/><path class="a" d="M341.31,160.71a10.68,10.68,0,0,1-2.56.31,7.41,7.41,0,0,1-4.17-1.16,4.66,4.66,0,0,1-1.92-3.89,19.86,19.86,0,0,1-5.49,3.85,17.16,17.16,0,0,1-7.5,1.52,18.77,18.77,0,0,1-3.85-.44,10.67,10.67,0,0,1-3.85-1.64,9.36,9.36,0,0,1-2.93-3.33,11.38,11.38,0,0,1-1.16-5.49,10.13,10.13,0,0,1,2.16-6.69,14.74,14.74,0,0,1,5.37-4,25.39,25.39,0,0,1,6.89-2,48.1,48.1,0,0,1,6.65-.52q1,0,1.84,0t1.76.12v-1.94a15.33,15.33,0,0,0-.4-3.59,7,7,0,0,0-1.4-2.87,6.57,6.57,0,0,0-2.79-1.9,13.29,13.29,0,0,0-4.67-.69,19,19,0,0,0-6.63,1,17.74,17.74,0,0,0-4.87,2.67,7.74,7.74,0,0,1-1.36-3A1.48,1.48,0,0,1,311,126a8.39,8.39,0,0,1,1.48-1,20.24,20.24,0,0,1,5.19-1.77,28.6,28.6,0,0,1,6-.67,20.55,20.55,0,0,1,6.51.88,9.67,9.67,0,0,1,4.15,2.61,9.8,9.8,0,0,1,2.2,4.25,24.19,24.19,0,0,1,.64,5.89v16a15.15,15.15,0,0,0,.32,3.53,5,5,0,0,0,.88,2,2.52,2.52,0,0,0,1.36.88,10.32,10.32,0,0,0,1.46.25c.13,0,.39.08.39.3v1.14C341.63,160.54,341.53,160.65,341.31,160.71Zm-8.65-20a6.23,6.23,0,0,0-1-.08h-1.08a55.4,55.4,0,0,0-6.27.36,21.2,21.2,0,0,0-5.75,1.44,10.88,10.88,0,0,0-4.19,3,7.31,7.31,0,0,0-1.6,4.91,10,10,0,0,0,.36,2.67,5.71,5.71,0,0,0,1.24,2.31,6.53,6.53,0,0,0,2.36,1.64,9.62,9.62,0,0,0,3.79.64,15,15,0,0,0,4.67-.72,17.93,17.93,0,0,0,3.87-1.76,11.86,11.86,0,0,0,2.64-2.11,3,3,0,0,0,1-1.79Z" transform="translate(-76.31 -106.35)"/><path class="a" d="M357.15,126.39a12.41,12.41,0,0,0-2.77.32,8.88,8.88,0,0,0-2.61,1,6,6,0,0,0-2,1.88,5.24,5.24,0,0,0-.76,2.93,4.71,4.71,0,0,0,.76,2.77,6.5,6.5,0,0,0,2,1.84,15.29,15.29,0,0,0,2.92,1.32q1.63.56,3.39,1,2.07.64,4.11,1.36a13.47,13.47,0,0,1,3.67,2,9.21,9.21,0,0,1,3.71,7.9,10.45,10.45,0,0,1-1,4.73A10.24,10.24,0,0,1,365.8,159a12.35,12.35,0,0,1-4.13,2.13,17.38,17.38,0,0,1-5.09.72,24.29,24.29,0,0,1-7.34-1,16.36,16.36,0,0,1-4.13-1.76,2.4,2.4,0,0,1-1.2-1.84,2.47,2.47,0,0,1,.36-1.2,20.34,20.34,0,0,1,1.24-1.84,15.17,15.17,0,0,0,1.48,1,19.28,19.28,0,0,0,2.39,1.28,20.4,20.4,0,0,0,3.16,1.12,14.44,14.44,0,0,0,3.83.48,13.4,13.4,0,0,0,3.28-.4,8.34,8.34,0,0,0,2.79-1.24,6.16,6.16,0,0,0,1.92-2.2,7,7,0,0,0,.72-3.29,6.34,6.34,0,0,0-.8-3.33,6.43,6.43,0,0,0-2.15-2.17,14,14,0,0,0-3.12-1.4q-1.76-.56-3.59-1-2-.56-4-1.24A12.91,12.91,0,0,1,348,140a8.88,8.88,0,0,1-2.52-2.93,9.34,9.34,0,0,1-1-4.49,8.28,8.28,0,0,1,1.1-4.33,10.59,10.59,0,0,1,2.85-3.13,12.49,12.49,0,0,1,4-1.92,16.84,16.84,0,0,1,4.65-.64,17.74,17.74,0,0,1,6.53,1,12.52,12.52,0,0,1,5.17,3.45c1,1.25.27,3.93-1.17,4.7a12.51,12.51,0,0,0-4.44-4A12.36,12.36,0,0,0,357.15,126.39Z" transform="translate(-76.31 -106.35)"/><path class="a" d="M386.72,126.39a12.44,12.44,0,0,0-2.77.32,8.9,8.9,0,0,0-2.61,1,6,6,0,0,0-2,1.88,5.22,5.22,0,0,0-.76,2.93,4.71,4.71,0,0,0,.76,2.77,6.48,6.48,0,0,0,2,1.84,15.33,15.33,0,0,0,2.91,1.32q1.64.56,3.39,1,2.07.64,4.11,1.36a13.44,13.44,0,0,1,3.67,2,9.21,9.21,0,0,1,3.71,7.9,10.43,10.43,0,0,1-1,4.73,10.26,10.26,0,0,1-2.8,3.49,12.38,12.38,0,0,1-4.13,2.13,17.4,17.4,0,0,1-5.09.72,24.29,24.29,0,0,1-7.34-1,16.36,16.36,0,0,1-4.13-1.76,2.4,2.4,0,0,1-1.2-1.84,2.47,2.47,0,0,1,.36-1.2,19.81,19.81,0,0,1,1.24-1.84,15.41,15.41,0,0,0,1.48,1,19.32,19.32,0,0,0,2.4,1.28,20.45,20.45,0,0,0,3.15,1.12,14.46,14.46,0,0,0,3.83.48,13.38,13.38,0,0,0,3.27-.4,8.36,8.36,0,0,0,2.8-1.24,6.17,6.17,0,0,0,1.92-2.2,7,7,0,0,0,.72-3.29,6.34,6.34,0,0,0-.8-3.33,6.46,6.46,0,0,0-2.16-2.17,14,14,0,0,0-3.12-1.4q-1.76-.56-3.59-1-2-.56-4-1.24a12.88,12.88,0,0,1-3.51-1.84,8.88,8.88,0,0,1-2.52-2.93,9.34,9.34,0,0,1-1-4.49,8.28,8.28,0,0,1,1.1-4.33,10.59,10.59,0,0,1,2.85-3.13,12.45,12.45,0,0,1,4-1.92,16.81,16.81,0,0,1,4.65-.64,17.75,17.75,0,0,1,6.54,1,12.5,12.5,0,0,1,5.17,3.45c1,1.25.27,3.93-1.17,4.7a11.83,11.83,0,0,0-10.46-5.34Z" transform="translate(-76.31 -106.35)"/><path class="a" d="M302.41,110.16q-5-3.81-15.76-3.81-3.06,0-6.11.2t-5.79.44V160a.59.59,0,0,0,.58.58h3.49a.6.6,0,0,0,.6-.58V138.75h6.69a41.76,41.76,0,0,0,8.06-.76,18.58,18.58,0,0,0,6.81-2.73,13.92,13.92,0,0,0,4.68-5.33,18.5,18.5,0,0,0,1.73-8.5Q307.4,114,302.41,110.16Zm-4,21.71q-4.09,3-11.45,3h-7.61V110.53q1.62-.16,3.28-.24t4.25-.08a34.08,34.08,0,0,1,6.11.52,13.9,13.9,0,0,1,5,1.86,9.47,9.47,0,0,1,3.32,3.59,12,12,0,0,1,1.21,5.73Q302.49,128.84,298.4,131.87Z" transform="translate(-76.31 -106.35)"/><path class="a" d="M400.92,122.42h-1.17v-.11s0-.06,0-.11a.42.42,0,0,1,.11-.28.47.47,0,0,1,.37-.13h2.64a1.79,1.79,0,0,1,0,.24.44.44,0,0,1,0,.14.32.32,0,0,1-.08.12.47.47,0,0,1-.15.09.59.59,0,0,1-.22,0h-.71v3.13h-.78Z" transform="translate(-76.31 -106.35)"/><path class="a" d="M403.68,121.77a.42.42,0,0,1,.29.09.63.63,0,0,1,.16.23l.85,2,.86-2a.55.55,0,0,1,.2-.26.46.46,0,0,1,.27-.08h.23l.16,0,.27,3.73h-.73l-.18-2.49-.76,1.71h-.65l-.74-1.63-.16,2.42H403l.28-3.73.16,0Z" transform="translate(-76.31 -106.35)"/></svg>